<?xml version="1.0" encoding="UTF-8"?>
<svg width="14px" height="14px" viewBox="0 0 14 14" version="1.1" xmlns="http://www.w3.org/2000/svg" xmlns:xlink="http://www.w3.org/1999/xlink">
    <!-- Generator: Sketch 47.1 (45422) - http://www.bohemiancoding.com/sketch -->
    <title>icon-profile</title>
    <desc>Created with Sketch.</desc>
    <defs></defs>
    <g id="Symbols" stroke="none" stroke-width="1" fill="none" fill-rule="evenodd">
        <g id="icon-profile" fill-rule="nonzero" fill="#49535C">
            <g id="profile">
                <path d="M1.44375,14 L12.11875,14 C12.534375,14 12.928125,13.803125 13.16875,13.453125 C13.409375,13.103125 13.453125,12.665625 13.3,12.271875 C12.20625,9.603125 9.646875,7.875 6.78125,7.875 C3.915625,7.875 1.35625,9.603125 0.284375,12.271875 C0.13125,12.665625 0.175,13.103125 0.415625,13.453125 C0.634375,13.803125 1.028125,14 1.44375,14 Z M1.09375,12.6 C2.034375,10.259375 4.265625,8.75 6.78125,8.75 C9.296875,8.75 11.528125,10.259375 12.46875,12.6 C12.5125,12.73125 12.5125,12.8625 12.425,12.971875 C12.359375,13.059375 12.25,13.125 12.11875,13.125 L1.44375,13.125 C1.3125,13.125 1.203125,13.059375 1.1375,12.95 C1.05,12.840625 1.05,12.709375 1.09375,12.6 Z" id="Shape"></path>
                <path d="M3.28125,3.5 C3.28125,5.425 4.85625,7 6.78125,7 C8.70625,7 10.28125,5.425 10.28125,3.5 C10.28125,1.575 8.70625,0 6.78125,0 C4.85625,0 3.28125,1.575 3.28125,3.5 Z M9.40625,3.5 C9.40625,4.94375 8.225,6.125 6.78125,6.125 C5.3375,6.125 4.15625,4.94375 4.15625,3.5 C4.15625,2.05625 5.3375,0.875 6.78125,0.875 C8.225,0.875 9.40625,2.05625 9.40625,3.5 Z" id="Shape"></path>
            </g>
        </g>
    </g>
</svg>