<?xml version="1.0" encoding="UTF-8"?>
<svg width="14px" height="14px" viewBox="0 0 14 14" version="1.1" xmlns="http://www.w3.org/2000/svg" xmlns:xlink="http://www.w3.org/1999/xlink">
    <!-- Generator: Sketch 47.1 (45422) - http://www.bohemiancoding.com/sketch -->
    <title>icon-add</title>
    <desc>Created with Sketch.</desc>
    <defs></defs>
    <g id="Symbols" stroke="none" stroke-width="1" fill="none" fill-rule="evenodd">
        <g id="icon-add" fill-rule="nonzero" fill="#49535C">
            <g id="add">
                <path d="M14,7 C14,7.33630435 13.7276087,7.60869565 13.3913043,7.60869565 L7.60869565,7.60869565 L7.60869565,13.3913043 C7.60869565,13.7273043 7.33630435,14 7,14 C6.66369565,14 6.39130435,13.7273043 6.39130435,13.3913043 L6.39130435,7.60869565 L0.608695652,7.60869565 C0.272391304,7.60869565 0,7.33630435 0,7 C0,6.66369565 0.272391304,6.39130435 0.608695652,6.39130435 L6.39130435,6.39130435 L6.39130435,0.608695652 C6.39130435,0.272391304 6.66369565,0 7,0 C7.33630435,0 7.60869565,0.272391304 7.60869565,0.608695652 L7.60869565,6.39130435 L13.3913043,6.39130435 C13.7276087,6.39130435 14,6.66369565 14,7 Z" id="Shape"></path>
            </g>
        </g>
    </g>
</svg>